<?xml version="1.0" standalone="no"?>
<!DOCTYPE svg PUBLIC "-//W3C//DTD SVG 20010904//EN"
 "http://www.w3.org/TR/2001/REC-SVG-20010904/DTD/svg10.dtd">
<svg version="1.0" xmlns="http://www.w3.org/2000/svg"
 width="300.000000pt" height="300.000000pt" viewBox="0 0 300.000000 300.000000"
 preserveAspectRatio="xMidYMid meet">
<metadata>
Created by potrace 1.10, written by Peter Selinger 2001-2011
</metadata>
<g transform="translate(0.000000,300.000000) scale(0.050000,-0.050000)"
fill="#ea792e" stroke="none">
<path d="M2875 4999 c-156 -38 -307 -172 -357 -316 l-22 -63 -165 0 c-168 0
-210 -17 -234 -98 -7 -21 -55 -26 -219 -24 -177 4 -218 -2 -255 -32 l-44 -36
0 -1630 0 -1630 43 -35 c39 -33 136 -35 1381 -35 l1339 0 49 49 49 49 0 1602
0 1602 -49 49 c-46 46 -62 49 -270 49 -178 0 -221 6 -221 29 0 68 -59 91 -230
91 l-167 0 -22 67 c-73 220 -367 372 -606 312z m231 -266 c35 -15 81 -47 102
-70 l38 -43 -233 0 c-236 0 -261 8 -198 66 81 73 188 90 291 47z m554 -438 l0
-65 -655 4 -655 3 -6 62 -7 61 662 0 661 0 0 -65z m-1567 -128 c-11 -71 11
-143 55 -172 12 -8 396 -15 853 -15 946 0 907 -7 910 153 l1 97 84 6 c67 5 93
-3 134 -44 l50 -50 0 -1342 0 -1342 -49 -49 -49 -49 -1082 0 -1082 0 -49 49
-49 49 0 1342 0 1342 49 49 c38 38 70 49 143 49 l93 0 -12 -73z"/>
<path d="M2449 3477 c-106 -100 -110 -102 -148 -68 -82 75 -221 15 -221 -94 0
-65 202 -255 271 -255 77 0 389 307 389 383 0 153 -147 171 -291 34z"/>
<path d="M3095 3442 c-96 -29 -125 -148 -53 -214 72 -65 786 -57 840 9 47 59
48 106 3 161 -33 40 -684 77 -790 44z"/>
<path d="M2451 2821 l-97 -99 -50 39 c-87 68 -224 12 -224 -92 0 -80 231 -281
298 -260 61 20 362 342 362 389 0 145 -156 158 -289 23z"/>
<path d="M3040 2760 c-22 -22 -40 -62 -40 -90 0 -118 43 -130 459 -130 l378 0
42 53 c22 29 41 63 41 77 0 14 -19 48 -41 77 l-42 53 -378 0 c-352 0 -382 -3
-419 -40z"/>
<path d="M2456 2180 c-108 -112 -109 -113 -159 -67 -78 70 -217 9 -217 -96 0
-70 196 -257 269 -257 84 0 391 304 391 386 0 147 -156 166 -284 34z"/>
<path d="M3033 2103 c-50 -55 -41 -134 20 -182 88 -69 747 -63 818 8 57 57 62
104 18 167 -44 63 -800 70 -856 7z"/>
</g>
</svg>
